<svg xmlns="http://www.w3.org/2000/svg" xmlns:xlink="http://www.w3.org/1999/xlink" width="250" zoomAndPan="magnify" viewBox="0 0 187.5 177.749994" height="237" preserveAspectRatio="xMidYMid meet" version="1.0"><defs><clipPath id="0ac79818c3"><path d="M 0 0.113281 L 76 0.113281 L 76 118 L 0 118 Z M 0 0.113281 " clip-rule="nonzero"/></clipPath><clipPath id="9fbe930c81"><path d="M 51.292969 92.265625 L 82.523438 92.265625 L 82.523438 123.496094 L 51.292969 123.496094 Z M 51.292969 92.265625 " clip-rule="nonzero"/></clipPath><clipPath id="5343142ddf"><path d="M 66.910156 92.265625 C 58.285156 92.265625 51.292969 99.253906 51.292969 107.878906 C 51.292969 116.503906 58.285156 123.496094 66.910156 123.496094 C 75.53125 123.496094 82.523438 116.503906 82.523438 107.878906 C 82.523438 99.253906 75.53125 92.265625 66.910156 92.265625 Z M 66.910156 92.265625 " clip-rule="nonzero"/></clipPath><clipPath id="1f5907f192"><path d="M 106 64 L 117 64 L 117 75 L 106 75 Z M 106 64 " clip-rule="nonzero"/></clipPath><clipPath id="4d1d33b177"><path d="M 111.503906 76.265625 L 104.199219 69.382812 L 111.082031 62.082031 L 118.386719 68.960938 Z M 111.503906 76.265625 " clip-rule="nonzero"/></clipPath><clipPath id="0174f2db2d"><path d="M 107.851562 72.824219 C 109.871094 74.726562 113.046875 74.628906 114.945312 72.613281 C 116.84375 70.597656 116.75 67.421875 114.734375 65.519531 C 112.714844 63.621094 109.539062 63.714844 107.640625 65.734375 C 105.742188 67.75 105.835938 70.925781 107.851562 72.824219 Z M 107.851562 72.824219 " clip-rule="nonzero"/></clipPath><clipPath id="3b2e5d51dd"><path d="M 92.433594 167.335938 L 102.464844 167.335938 L 102.464844 177.371094 L 92.433594 177.371094 Z M 92.433594 167.335938 " clip-rule="nonzero"/></clipPath><clipPath id="1b62e484ae"><path d="M 97.449219 167.335938 C 94.679688 167.335938 92.433594 169.582031 92.433594 172.355469 C 92.433594 175.125 94.679688 177.371094 97.449219 177.371094 C 100.21875 177.371094 102.464844 175.125 102.464844 172.355469 C 102.464844 169.582031 100.21875 167.335938 97.449219 167.335938 Z M 97.449219 167.335938 " clip-rule="nonzero"/></clipPath><clipPath id="421e4dc1c3"><path d="M 83 91 L 173 91 L 173 177.390625 L 83 177.390625 Z M 83 91 " clip-rule="nonzero"/></clipPath><clipPath id="077aee5dcd"><path d="M 165.058594 71.066406 L 186.257812 71.066406 L 186.257812 92.265625 L 165.058594 92.265625 Z M 165.058594 71.066406 " clip-rule="nonzero"/></clipPath><clipPath id="c651052134"><path d="M 175.660156 71.066406 C 169.804688 71.066406 165.058594 75.8125 165.058594 81.664062 C 165.058594 87.519531 169.804688 92.265625 175.660156 92.265625 C 181.511719 92.265625 186.257812 87.519531 186.257812 81.664062 C 186.257812 75.8125 181.511719 71.066406 175.660156 71.066406 Z M 175.660156 71.066406 " clip-rule="nonzero"/></clipPath><clipPath id="708c6da3ce"><path d="M 165.058594 130.550781 L 186.257812 130.550781 L 186.257812 151.75 L 165.058594 151.75 Z M 165.058594 130.550781 " clip-rule="nonzero"/></clipPath><clipPath id="5a6d8f33e2"><path d="M 175.660156 130.550781 C 169.804688 130.550781 165.058594 135.296875 165.058594 141.152344 C 165.058594 147.003906 169.804688 151.75 175.660156 151.75 C 181.511719 151.75 186.257812 147.003906 186.257812 141.152344 C 186.257812 135.296875 181.511719 130.550781 175.660156 130.550781 Z M 175.660156 130.550781 " clip-rule="nonzero"/></clipPath><clipPath id="48917546f4"><path d="M 148 102 L 159 102 L 159 113 L 148 113 Z M 148 102 " clip-rule="nonzero"/></clipPath><clipPath id="8319fa89c5"><path d="M 153.710938 114.964844 L 146.40625 108.085938 L 153.289062 100.78125 L 160.589844 107.660156 Z M 153.710938 114.964844 " clip-rule="nonzero"/></clipPath><clipPath id="164c5ec5d7"><path d="M 150.058594 111.523438 C 152.074219 113.425781 155.25 113.328125 157.152344 111.3125 C 159.050781 109.296875 158.957031 106.121094 156.9375 104.21875 C 154.921875 102.320312 151.746094 102.414062 149.847656 104.433594 C 147.945312 106.449219 148.042969 109.625 150.058594 111.523438 Z M 150.058594 111.523438 " clip-rule="nonzero"/></clipPath></defs><g clip-path="url(#0ac79818c3)"><path stroke-linecap="butt" transform="matrix(0.371239, 0.649379, -0.649379, 0.371239, 2.596842, 0.112861)" fill="none" stroke-linejoin="miter" d="M -0.000651404 2.001488 L 153.880279 1.998022 " stroke="#fff7eb" stroke-width="4" stroke-opacity="1" stroke-miterlimit="4"/></g><g clip-path="url(#9fbe930c81)"><g clip-path="url(#5343142ddf)"><path fill="#fff7eb" d="M 51.292969 92.265625 L 82.523438 92.265625 L 82.523438 123.496094 L 51.292969 123.496094 Z M 51.292969 92.265625 " fill-opacity="1" fill-rule="nonzero"/></g></g><path stroke-linecap="butt" transform="matrix(0.563781, -0.491592, 0.491592, 0.563781, 75.788085, 98.153023)" fill="none" stroke-linejoin="miter" d="M -0.00233409 1.999143 L 54.525257 2.000251 " stroke="#fff7eb" stroke-width="4" stroke-opacity="1" stroke-miterlimit="4"/><g clip-path="url(#1f5907f192)"><g clip-path="url(#4d1d33b177)"><g clip-path="url(#0174f2db2d)"><path fill="#fff7eb" d="M 111.503906 76.265625 L 104.199219 69.382812 L 111.082031 62.082031 L 118.386719 68.960938 Z M 111.503906 76.265625 " fill-opacity="1" fill-rule="nonzero"/></g></g></g><path stroke-linecap="butt" transform="matrix(0.555726, 0.50068, -0.50068, 0.555726, 116.024357, 71.429432)" fill="none" stroke-linejoin="miter" d="M -0.00119114 1.997797 L 70.587356 2.000425 " stroke="#fff7eb" stroke-width="4" stroke-opacity="1" stroke-miterlimit="4"/><g clip-path="url(#3b2e5d51dd)"><g clip-path="url(#1b62e484ae)"><path fill="#fff7eb" d="M 92.433594 167.335938 L 102.464844 167.335938 L 102.464844 177.371094 L 92.433594 177.371094 Z M 92.433594 167.335938 " fill-opacity="1" fill-rule="nonzero"/></g></g><g clip-path="url(#421e4dc1c3)"><path stroke-linecap="butt" transform="matrix(-0.504162, 0.552569, -0.552569, -0.504162, 156.440966, 109.918014)" fill="none" stroke-linejoin="miter" d="M 0.000361106 1.999472 L 108.109452 1.998466 " stroke="#fff7eb" stroke-width="4" stroke-opacity="1" stroke-miterlimit="4"/></g><g clip-path="url(#077aee5dcd)"><g clip-path="url(#c651052134)"><path fill="#fff7eb" d="M 165.058594 71.066406 L 186.257812 71.066406 L 186.257812 92.265625 L 165.058594 92.265625 Z M 165.058594 71.066406 " fill-opacity="1" fill-rule="nonzero"/></g></g><g clip-path="url(#708c6da3ce)"><g clip-path="url(#5a6d8f33e2)"><path fill="#fff7eb" d="M 165.058594 130.550781 L 186.257812 130.550781 L 186.257812 151.75 L 165.058594 151.75 Z M 165.058594 130.550781 " fill-opacity="1" fill-rule="nonzero"/></g></g><g clip-path="url(#48917546f4)"><g clip-path="url(#8319fa89c5)"><g clip-path="url(#164c5ec5d7)"><path fill="#fff7eb" d="M 153.710938 114.964844 L 146.40625 108.085938 L 153.289062 100.78125 L 160.589844 107.660156 Z M 153.710938 114.964844 " fill-opacity="1" fill-rule="nonzero"/></g></g></g></svg>