<svg xmlns="http://www.w3.org/2000/svg" xmlns:xlink="http://www.w3.org/1999/xlink" width="285" zoomAndPan="magnify" viewBox="0 0 213.75 99.749996" height="133" preserveAspectRatio="xMidYMid meet" version="1.0"><defs><clipPath id="c82d5c0835"><path d="M 0.140625 34 L 143 34 L 143 38 L 0.140625 38 Z M 0.140625 34 " clip-rule="nonzero"/></clipPath><clipPath id="0b65bc22a6"><path d="M 39.355469 0 L 49.390625 0 L 49.390625 10.035156 L 39.355469 10.035156 Z M 39.355469 0 " clip-rule="nonzero"/></clipPath><clipPath id="fa179bdfe3"><path d="M 44.375 0 C 41.601562 0 39.355469 2.246094 39.355469 5.019531 C 39.355469 7.789062 41.601562 10.035156 44.375 10.035156 C 47.144531 10.035156 49.390625 7.789062 49.390625 5.019531 C 49.390625 2.246094 47.144531 0 44.375 0 Z M 44.375 0 " clip-rule="nonzero"/></clipPath><clipPath id="70b6df3045"><path d="M 96.210938 0 L 106.25 0 L 106.25 10.035156 L 96.210938 10.035156 Z M 96.210938 0 " clip-rule="nonzero"/></clipPath><clipPath id="235e326a3b"><path d="M 101.230469 0 C 98.460938 0 96.210938 2.246094 96.210938 5.019531 C 96.210938 7.789062 98.460938 10.035156 101.230469 10.035156 C 104.003906 10.035156 106.25 7.789062 106.25 5.019531 C 106.25 2.246094 104.003906 0 101.230469 0 Z M 101.230469 0 " clip-rule="nonzero"/></clipPath><clipPath id="bd587ccb83"><path d="M 39.355469 30.488281 L 49.390625 30.488281 L 49.390625 40.523438 L 39.355469 40.523438 Z M 39.355469 30.488281 " clip-rule="nonzero"/></clipPath><clipPath id="eb509e5081"><path d="M 44.375 30.488281 C 41.601562 30.488281 39.355469 32.734375 39.355469 35.507812 C 39.355469 38.277344 41.601562 40.523438 44.375 40.523438 C 47.144531 40.523438 49.390625 38.277344 49.390625 35.507812 C 49.390625 32.734375 47.144531 30.488281 44.375 30.488281 Z M 44.375 30.488281 " clip-rule="nonzero"/></clipPath><clipPath id="6a31c0f1cb"><path d="M 96.210938 30.488281 L 106.25 30.488281 L 106.25 40.523438 L 96.210938 40.523438 Z M 96.210938 30.488281 " clip-rule="nonzero"/></clipPath><clipPath id="563300c15d"><path d="M 101.230469 30.488281 C 98.460938 30.488281 96.210938 32.734375 96.210938 35.507812 C 96.210938 38.277344 98.460938 40.523438 101.230469 40.523438 C 104.003906 40.523438 106.25 38.277344 106.25 35.507812 C 106.25 32.734375 104.003906 30.488281 101.230469 30.488281 Z M 101.230469 30.488281 " clip-rule="nonzero"/></clipPath><clipPath id="c48cd2e7cb"><path d="M 135.542969 30.488281 L 145.582031 30.488281 L 145.582031 40.523438 L 135.542969 40.523438 Z M 135.542969 30.488281 " clip-rule="nonzero"/></clipPath><clipPath id="1bf00ed447"><path d="M 140.5625 30.488281 C 137.792969 30.488281 135.542969 32.734375 135.542969 35.507812 C 135.542969 38.277344 137.792969 40.523438 140.5625 40.523438 C 143.332031 40.523438 145.582031 38.277344 145.582031 35.507812 C 145.582031 32.734375 143.332031 30.488281 140.5625 30.488281 Z M 140.5625 30.488281 " clip-rule="nonzero"/></clipPath><clipPath id="6abe3f7f67"><path d="M 0.140625 30.488281 L 10.179688 30.488281 L 10.179688 40.523438 L 0.140625 40.523438 Z M 0.140625 30.488281 " clip-rule="nonzero"/></clipPath><clipPath id="9cf417fb0e"><path d="M 5.160156 30.488281 C 2.390625 30.488281 0.140625 32.734375 0.140625 35.507812 C 0.140625 38.277344 2.390625 40.523438 5.160156 40.523438 C 7.933594 40.523438 10.179688 38.277344 10.179688 35.507812 C 10.179688 32.734375 7.933594 30.488281 5.160156 30.488281 Z M 5.160156 30.488281 " clip-rule="nonzero"/></clipPath><clipPath id="608e0840f3"><path d="M 125 18 L 213.359375 18 L 213.359375 99.5 L 125 99.5 Z M 125 18 " clip-rule="nonzero"/></clipPath></defs><path stroke-linecap="butt" transform="matrix(0, 0.748125, -0.748125, 0, 45.868437, 4.271028)" fill="none" stroke-linejoin="miter" d="M -0.00200131 2.001461 L 41.753432 2.001461 " stroke="#fff7eb" stroke-width="4" stroke-opacity="1" stroke-miterlimit="4"/><path stroke-linecap="butt" transform="matrix(0, 0.748125, -0.748125, 0, 102.72593, 4.271028)" fill="none" stroke-linejoin="miter" d="M -0.00200131 1.998946 L 41.753432 1.998946 " stroke="#fff7eb" stroke-width="4" stroke-opacity="1" stroke-miterlimit="4"/><path stroke-linecap="butt" transform="matrix(0.748125, 0, 0, 0.748125, 44.37335, 2.773615)" fill="none" stroke-linejoin="miter" d="M 0.00220497 1.999554 L 75.999496 1.999554 " stroke="#fff7eb" stroke-width="4" stroke-opacity="1" stroke-miterlimit="4"/><g clip-path="url(#c82d5c0835)"><path stroke-linecap="butt" transform="matrix(0.748125, 0.000000000000000916, -0.000000000000000916, 0.748125, 1.651951, 34.010157)" fill="none" stroke-linejoin="miter" d="M 0.000524486 2.001879 L 185.678276 2.001879 " stroke="#fff7eb" stroke-width="4" stroke-opacity="1" stroke-miterlimit="4"/></g><g clip-path="url(#0b65bc22a6)"><g clip-path="url(#fa179bdfe3)"><path fill="#fff7eb" d="M 39.355469 0 L 49.390625 0 L 49.390625 10.035156 L 39.355469 10.035156 Z M 39.355469 0 " fill-opacity="1" fill-rule="nonzero"/></g></g><g clip-path="url(#70b6df3045)"><g clip-path="url(#235e326a3b)"><path fill="#fff7eb" d="M 96.210938 0 L 106.25 0 L 106.25 10.035156 L 96.210938 10.035156 Z M 96.210938 0 " fill-opacity="1" fill-rule="nonzero"/></g></g><g clip-path="url(#bd587ccb83)"><g clip-path="url(#eb509e5081)"><path fill="#fff7eb" d="M 39.355469 30.488281 L 49.390625 30.488281 L 49.390625 40.523438 L 39.355469 40.523438 Z M 39.355469 30.488281 " fill-opacity="1" fill-rule="nonzero"/></g></g><g clip-path="url(#6a31c0f1cb)"><g clip-path="url(#563300c15d)"><path fill="#fff7eb" d="M 96.210938 30.488281 L 106.25 30.488281 L 106.25 40.523438 L 96.210938 40.523438 Z M 96.210938 30.488281 " fill-opacity="1" fill-rule="nonzero"/></g></g><g clip-path="url(#c48cd2e7cb)"><g clip-path="url(#1bf00ed447)"><path fill="#fff7eb" d="M 135.542969 30.488281 L 145.582031 30.488281 L 145.582031 40.523438 L 135.542969 40.523438 Z M 135.542969 30.488281 " fill-opacity="1" fill-rule="nonzero"/></g></g><g clip-path="url(#6abe3f7f67)"><g clip-path="url(#9cf417fb0e)"><path fill="#fff7eb" d="M 0.140625 30.488281 L 10.179688 30.488281 L 10.179688 40.523438 L 0.140625 40.523438 Z M 0.140625 30.488281 " fill-opacity="1" fill-rule="nonzero"/></g></g><g clip-path="url(#608e0840f3)"><path stroke-linecap="butt" transform="matrix(-0.557538, -0.498841, 0.498841, -0.557538, 210.883631, 99.094467)" fill="none" stroke-linejoin="miter" d="M -0.00245668 2.000263 L 125.241141 2.00023 " stroke="#fff7eb" stroke-width="4" stroke-opacity="1" stroke-miterlimit="4"/></g></svg>