<svg xmlns="http://www.w3.org/2000/svg" xmlns:xlink="http://www.w3.org/1999/xlink" width="412" zoomAndPan="magnify" viewBox="0 0 309 301.499996" height="402" preserveAspectRatio="xMidYMid meet" version="1.0"><defs><clipPath id="e7885cadf0"><path d="M 0.253906 0 L 206 0 L 206 127 L 0.253906 127 Z M 0.253906 0 " clip-rule="nonzero"/></clipPath><clipPath id="3ae9fc4c26"><path d="M 172.632812 93.78125 L 203.894531 93.78125 L 203.894531 125.042969 L 172.632812 125.042969 Z M 172.632812 93.78125 " clip-rule="nonzero"/></clipPath><clipPath id="55c3009d2a"><path d="M 188.265625 93.78125 C 179.632812 93.78125 172.632812 100.777344 172.632812 109.410156 C 172.632812 118.042969 179.632812 125.042969 188.265625 125.042969 C 196.898438 125.042969 203.894531 118.042969 203.894531 109.410156 C 203.894531 100.777344 196.898438 93.78125 188.265625 93.78125 Z M 188.265625 93.78125 " clip-rule="nonzero"/></clipPath><clipPath id="ec372d392d"><path d="M 178.25 244.304688 L 197.53125 244.304688 L 197.53125 263.585938 L 178.25 263.585938 Z M 178.25 244.304688 " clip-rule="nonzero"/></clipPath><clipPath id="09a818fb19"><path d="M 187.890625 244.304688 C 182.566406 244.304688 178.25 248.621094 178.25 253.945312 C 178.25 259.269531 182.566406 263.585938 187.890625 263.585938 C 193.214844 263.585938 197.53125 259.269531 197.53125 253.945312 C 197.53125 248.621094 193.214844 244.304688 187.890625 244.304688 Z M 187.890625 244.304688 " clip-rule="nonzero"/></clipPath><clipPath id="c3f55d0b52"><path d="M 275 92 L 308.742188 92 L 308.742188 271 L 275 271 Z M 275 92 " clip-rule="nonzero"/></clipPath><clipPath id="a8044cc8ae"><path d="M 282.417969 244.304688 L 301.703125 244.304688 L 301.703125 263.585938 L 282.417969 263.585938 Z M 282.417969 244.304688 " clip-rule="nonzero"/></clipPath><clipPath id="071b7409d5"><path d="M 292.058594 244.304688 C 286.734375 244.304688 282.417969 248.621094 282.417969 253.945312 C 282.417969 259.269531 286.734375 263.585938 292.058594 263.585938 C 297.386719 263.585938 301.703125 259.269531 301.703125 253.945312 C 301.703125 248.621094 297.386719 244.304688 292.058594 244.304688 Z M 292.058594 244.304688 " clip-rule="nonzero"/></clipPath><clipPath id="2ce7b8118e"><path d="M 134 239 L 205 239 L 205 301 L 134 301 Z M 134 239 " clip-rule="nonzero"/></clipPath><clipPath id="9640b921e0"><path d="M 142.523438 289.390625 L 152.566406 289.390625 L 152.566406 299.4375 L 142.523438 299.4375 Z M 142.523438 289.390625 " clip-rule="nonzero"/></clipPath><clipPath id="b45b48b3de"><path d="M 147.546875 289.390625 C 144.773438 289.390625 142.523438 291.640625 142.523438 294.414062 C 142.523438 297.1875 144.773438 299.4375 147.546875 299.4375 C 150.320312 299.4375 152.566406 297.1875 152.566406 294.414062 C 152.566406 291.640625 150.320312 289.390625 147.546875 289.390625 Z M 147.546875 289.390625 " clip-rule="nonzero"/></clipPath><clipPath id="3576a33cbf"><path d="M 277.175781 93.78125 L 308.441406 93.78125 L 308.441406 125.042969 L 277.175781 125.042969 Z M 277.175781 93.78125 " clip-rule="nonzero"/></clipPath><clipPath id="47eda3af47"><path d="M 292.808594 93.78125 C 284.175781 93.78125 277.175781 100.777344 277.175781 109.410156 C 277.175781 118.042969 284.175781 125.042969 292.808594 125.042969 C 301.441406 125.042969 308.441406 118.042969 308.441406 109.410156 C 308.441406 100.777344 301.441406 93.78125 292.808594 93.78125 Z M 292.808594 93.78125 " clip-rule="nonzero"/></clipPath><clipPath id="3ad03ce768"><path d="M 238 240 L 308.742188 240 L 308.742188 301 L 238 301 Z M 238 240 " clip-rule="nonzero"/></clipPath><clipPath id="0160543ab4"><path d="M 246.398438 290.480469 L 256.441406 290.480469 L 256.441406 300.527344 L 246.398438 300.527344 Z M 246.398438 290.480469 " clip-rule="nonzero"/></clipPath><clipPath id="fd212e54c7"><path d="M 251.417969 290.480469 C 248.644531 290.480469 246.398438 292.730469 246.398438 295.503906 C 246.398438 298.277344 248.644531 300.527344 251.417969 300.527344 C 254.191406 300.527344 256.441406 298.277344 256.441406 295.503906 C 256.441406 292.730469 254.191406 290.480469 251.417969 290.480469 Z M 251.417969 290.480469 " clip-rule="nonzero"/></clipPath></defs><g clip-path="url(#e7885cadf0)"><path stroke-linecap="butt" transform="matrix(0.648444, 0.374379, -0.374379, 0.648444, 1.753167, 0.000546493)" fill="none" stroke-linejoin="miter" d="M -0.000953776 1.999689 L 288.786526 2.001517 " stroke="#fff7eb" stroke-width="4" stroke-opacity="1" stroke-miterlimit="4"/></g><g clip-path="url(#3ae9fc4c26)"><g clip-path="url(#55c3009d2a)"><path fill="#fff7eb" d="M 172.632812 93.78125 L 203.894531 93.78125 L 203.894531 125.042969 L 172.632812 125.042969 Z M 172.632812 93.78125 " fill-opacity="1" fill-rule="nonzero"/></g></g><path stroke-linecap="butt" transform="matrix(-0.0038791, 0.748748, -0.748748, -0.0038791, 190.133676, 109.430168)" fill="none" stroke-linejoin="miter" d="M -0.000718165 1.999284 L 193.024594 2.000934 " stroke="#fff7eb" stroke-width="4" stroke-opacity="1" stroke-miterlimit="4"/><g clip-path="url(#ec372d392d)"><g clip-path="url(#09a818fb19)"><path fill="#fff7eb" d="M 178.25 244.304688 L 197.53125 244.304688 L 197.53125 263.585938 L 178.25 263.585938 Z M 178.25 244.304688 " fill-opacity="1" fill-rule="nonzero"/></g></g><g clip-path="url(#c3f55d0b52)"><path stroke-linecap="butt" transform="matrix(-0.0038791, 0.748748, -0.748748, -0.0038791, 294.303598, 109.437926)" fill="none" stroke-linejoin="miter" d="M -0.000632307 2.001892 L 193.024653 1.998326 " stroke="#fff7eb" stroke-width="4" stroke-opacity="1" stroke-miterlimit="4"/></g><g clip-path="url(#a8044cc8ae)"><g clip-path="url(#071b7409d5)"><path fill="#fff7eb" d="M 282.417969 244.304688 L 301.703125 244.304688 L 301.703125 263.585938 L 282.417969 263.585938 Z M 282.417969 244.304688 " fill-opacity="1" fill-rule="nonzero"/></g></g><g clip-path="url(#2ce7b8118e)"><path stroke-linecap="butt" transform="matrix(-0.545027, 0.513405, -0.513405, -0.545027, 188.931935, 257.483627)" fill="none" stroke-linejoin="miter" d="M -0.000216695 1.998038 L 67.34955 1.99726 " stroke="#fff7eb" stroke-width="4" stroke-opacity="1" stroke-miterlimit="4"/></g><g clip-path="url(#9640b921e0)"><g clip-path="url(#b45b48b3de)"><path fill="#fff7eb" d="M 142.523438 289.390625 L 152.566406 289.390625 L 152.566406 299.4375 L 142.523438 299.4375 Z M 142.523438 289.390625 " fill-opacity="1" fill-rule="nonzero"/></g></g><g clip-path="url(#3576a33cbf)"><g clip-path="url(#47eda3af47)"><path fill="#fff7eb" d="M 277.175781 93.78125 L 308.441406 93.78125 L 308.441406 125.042969 L 277.175781 125.042969 Z M 277.175781 93.78125 " fill-opacity="1" fill-rule="nonzero"/></g></g><g clip-path="url(#3ad03ce768)"><path stroke-linecap="butt" transform="matrix(-0.545027, 0.513405, -0.513405, -0.545027, 292.805262, 258.573714)" fill="none" stroke-linejoin="miter" d="M 0.00173276 2.00032 L 67.351499 1.999542 " stroke="#fff7eb" stroke-width="4" stroke-opacity="1" stroke-miterlimit="4"/></g><g clip-path="url(#0160543ab4)"><g clip-path="url(#fd212e54c7)"><path fill="#fff7eb" d="M 246.398438 290.480469 L 256.441406 290.480469 L 256.441406 300.527344 L 246.398438 300.527344 Z M 246.398438 290.480469 " fill-opacity="1" fill-rule="nonzero"/></g></g><path stroke-linecap="butt" transform="matrix(0.748758, 0, 0, 0.748758, 190.88546, 107.91413)" fill="none" stroke-linejoin="miter" d="M 0.00168054 1.998009 L 115.24457 1.998009 " stroke="#fff7eb" stroke-width="4" stroke-opacity="1" stroke-miterlimit="4"/></svg>