<svg xmlns="http://www.w3.org/2000/svg" xmlns:xlink="http://www.w3.org/1999/xlink" width="267" zoomAndPan="magnify" viewBox="0 0 200.25 223.499992" height="298" preserveAspectRatio="xMidYMid meet" version="1.0"><defs><clipPath id="d2fe85a759"><path d="M 0 137 L 94 137 L 94 222.832031 L 0 222.832031 Z M 0 137 " clip-rule="nonzero"/></clipPath><clipPath id="94a0034aff"><path d="M 60 0.167969 L 96 0.167969 L 96 171 L 60 171 Z M 60 0.167969 " clip-rule="nonzero"/></clipPath><clipPath id="47beceed1e"><path d="M 121.210938 148.03125 L 131.234375 148.03125 L 131.234375 158.683594 L 121.210938 158.683594 Z M 121.210938 148.03125 " clip-rule="nonzero"/></clipPath><clipPath id="62ee7a91eb"><path d="M 126.222656 158.683594 C 128.992188 158.683594 131.234375 156.300781 131.234375 153.367188 C 131.234375 150.429688 128.992188 148.050781 126.222656 148.050781 C 123.457031 148.050781 121.210938 150.429688 121.210938 153.367188 C 121.210938 156.300781 123.457031 158.683594 126.222656 158.683594 Z M 126.222656 158.683594 " clip-rule="nonzero"/></clipPath><clipPath id="9996e10304"><path d="M 73 148.03125 L 83.023438 148.03125 L 83.023438 158.683594 L 73 158.683594 Z M 73 148.03125 " clip-rule="nonzero"/></clipPath><clipPath id="b8a2f4de63"><path d="M 78.011719 158.683594 C 80.777344 158.683594 83.023438 156.300781 83.023438 153.367188 C 83.023438 150.429688 80.777344 148.050781 78.011719 148.050781 C 75.242188 148.050781 73 150.429688 73 153.367188 C 73 156.300781 75.242188 158.683594 78.011719 158.683594 Z M 78.011719 158.683594 " clip-rule="nonzero"/></clipPath><clipPath id="2b13bccee1"><path d="M 109 137 L 199.503906 137 L 199.503906 222.832031 L 109 222.832031 Z M 109 137 " clip-rule="nonzero"/></clipPath><clipPath id="b62868de0a"><path d="M 86.578125 169.734375 L 117.777344 169.734375 L 117.777344 202.882812 L 86.578125 202.882812 Z M 86.578125 169.734375 " clip-rule="nonzero"/></clipPath><clipPath id="0262646849"><path d="M 102.179688 202.882812 C 110.792969 202.882812 117.777344 195.476562 117.777344 186.339844 C 117.777344 177.203125 110.792969 169.796875 102.179688 169.796875 C 93.5625 169.796875 86.578125 177.203125 86.578125 186.339844 C 86.578125 195.476562 93.5625 202.882812 102.179688 202.882812 Z M 102.179688 202.882812 " clip-rule="nonzero"/></clipPath><clipPath id="f0b20f9c37"><path d="M 0 202.101562 L 19.242188 202.101562 L 19.242188 222.546875 L 0 222.546875 Z M 0 202.101562 " clip-rule="nonzero"/></clipPath><clipPath id="360ee1054e"><path d="M 9.617188 222.546875 C 14.933594 222.546875 19.242188 217.976562 19.242188 212.34375 C 19.242188 206.707031 14.933594 202.136719 9.617188 202.136719 C 4.304688 202.136719 -0.00390625 206.707031 -0.00390625 212.34375 C -0.00390625 217.976562 4.304688 222.546875 9.617188 222.546875 Z M 9.617188 222.546875 " clip-rule="nonzero"/></clipPath><clipPath id="5ae9e4952e"><path d="M 179.953125 202.101562 L 199.195312 202.101562 L 199.195312 222.546875 L 179.953125 222.546875 Z M 179.953125 202.101562 " clip-rule="nonzero"/></clipPath><clipPath id="fbecdda20d"><path d="M 189.574219 222.546875 C 194.886719 222.546875 199.195312 217.976562 199.195312 212.34375 C 199.195312 206.707031 194.886719 202.136719 189.574219 202.136719 C 184.261719 202.136719 179.953125 206.707031 179.953125 212.34375 C 179.953125 217.976562 184.261719 222.546875 189.574219 222.546875 Z M 189.574219 222.546875 " clip-rule="nonzero"/></clipPath><clipPath id="3f9db1e8f8"><path d="M 108 0.167969 L 144 0.167969 L 144 173 L 108 173 Z M 108 0.167969 " clip-rule="nonzero"/></clipPath></defs><g clip-path="url(#d2fe85a759)"><path stroke-linecap="butt" transform="matrix(-0.565154, 0.488785, -0.488785, -0.565154, 77.638048, 155.386839)" fill="none" stroke-linejoin="miter" d="M 0.00144681 1.998984 L 106.291671 1.998919 " stroke="#fff7eb" stroke-width="4" stroke-opacity="1" stroke-miterlimit="4"/></g><g clip-path="url(#94a0034aff)"><path stroke-linecap="butt" transform="matrix(0.00364981, -0.747193, 0.747193, 0.00364981, 76.147454, 153.133983)" fill="none" stroke-linejoin="miter" d="M 0.000871826 1.998371 L 204.725558 2.00211 " stroke="#fff7eb" stroke-width="4" stroke-opacity="1" stroke-miterlimit="4"/></g><path stroke-linecap="butt" transform="matrix(0.747201, 0, 0, 0.747201, 83.028976, 151.879239)" fill="none" stroke-linejoin="miter" d="M -0.00218472 2.001818 L 51.110411 2.001818 " stroke="#fff7eb" stroke-width="4" stroke-opacity="1" stroke-miterlimit="4"/><g clip-path="url(#47beceed1e)"><g clip-path="url(#62ee7a91eb)"><path fill="#fff7eb" d="M 131.234375 158.683594 L 121.210938 158.683594 L 121.210938 148.03125 L 131.234375 148.03125 Z M 131.234375 158.683594 " fill-opacity="1" fill-rule="nonzero"/></g></g><g clip-path="url(#9996e10304)"><g clip-path="url(#b8a2f4de63)"><path fill="#fff7eb" d="M 83.023438 158.683594 L 73 158.683594 L 73 148.03125 L 83.023438 148.03125 Z M 83.023438 158.683594 " fill-opacity="1" fill-rule="nonzero"/></g></g><g clip-path="url(#2b13bccee1)"><path stroke-linecap="butt" transform="matrix(0.5395, 0.516962, -0.516962, 0.5395, 127.631277, 152.985257)" fill="none" stroke-linejoin="miter" d="M -0.00133581 1.998021 L 103.054844 2.000331 " stroke="#fff7eb" stroke-width="4" stroke-opacity="1" stroke-miterlimit="4"/></g><g clip-path="url(#b62868de0a)"><g clip-path="url(#0262646849)"><path fill="#fff7eb" d="M 117.777344 202.882812 L 86.578125 202.882812 L 86.578125 169.734375 L 117.777344 169.734375 Z M 117.777344 202.882812 " fill-opacity="1" fill-rule="nonzero"/></g></g><g clip-path="url(#f0b20f9c37)"><g clip-path="url(#360ee1054e)"><path fill="#fff7eb" d="M 19.242188 222.546875 L -0.00390625 222.546875 L -0.00390625 202.101562 L 19.242188 202.101562 Z M 19.242188 222.546875 " fill-opacity="1" fill-rule="nonzero"/></g></g><g clip-path="url(#5ae9e4952e)"><g clip-path="url(#fbecdda20d)"><path fill="#fff7eb" d="M 199.195312 222.546875 L 179.953125 222.546875 L 179.953125 202.101562 L 199.195312 202.101562 Z M 199.195312 222.546875 " fill-opacity="1" fill-rule="nonzero"/></g></g><g clip-path="url(#3f9db1e8f8)"><path stroke-linecap="butt" transform="matrix(0.00364981, -0.747193, 0.747193, 0.00364981, 124.360854, 155.368421)" fill="none" stroke-linejoin="miter" d="M 0.000966142 2.000302 L 204.725627 1.998813 " stroke="#fff7eb" stroke-width="4" stroke-opacity="1" stroke-miterlimit="4"/></g></svg>