<svg xmlns="http://www.w3.org/2000/svg" xmlns:xlink="http://www.w3.org/1999/xlink" width="412" zoomAndPan="magnify" viewBox="0 0 309 319.499995" height="426" preserveAspectRatio="xMidYMid meet" version="1.0"><defs><clipPath id="78a46850e0"><path d="M 103 185 L 308.757812 185 L 308.757812 319 L 103 319 Z M 103 185 " clip-rule="nonzero"/></clipPath><clipPath id="f14b213f24"><path d="M 104.785156 186.078125 L 136.050781 186.078125 L 136.050781 219.296875 L 104.785156 219.296875 Z M 104.785156 186.078125 " clip-rule="nonzero"/></clipPath><clipPath id="8d712f9ae8"><path d="M 120.417969 219.296875 C 129.050781 219.296875 136.050781 211.875 136.050781 202.71875 C 136.050781 193.558594 129.050781 186.136719 120.417969 186.136719 C 111.785156 186.136719 104.785156 193.558594 104.785156 202.71875 C 104.785156 211.875 111.785156 219.296875 120.417969 219.296875 Z M 120.417969 219.296875 " clip-rule="nonzero"/></clipPath><clipPath id="3329b56ac1"><path d="M 111.148438 39.144531 L 130.433594 39.144531 L 130.433594 59.636719 L 111.148438 59.636719 Z M 111.148438 39.144531 " clip-rule="nonzero"/></clipPath><clipPath id="268af7cf03"><path d="M 120.792969 59.636719 C 126.117188 59.636719 130.433594 55.054688 130.433594 49.40625 C 130.433594 43.761719 126.117188 39.179688 120.792969 39.179688 C 115.46875 39.179688 111.148438 43.761719 111.148438 49.40625 C 111.148438 55.054688 115.46875 59.636719 120.792969 59.636719 Z M 120.792969 59.636719 " clip-rule="nonzero"/></clipPath><clipPath id="3054fab50e"><path d="M 0.242188 32 L 34 32 L 34 220 L 0.242188 220 Z M 0.242188 32 " clip-rule="nonzero"/></clipPath><clipPath id="57efeb08a9"><path d="M 6.96875 39.144531 L 26.253906 39.144531 L 26.253906 59.636719 L 6.96875 59.636719 Z M 6.96875 39.144531 " clip-rule="nonzero"/></clipPath><clipPath id="44fc1260d1"><path d="M 16.613281 59.636719 C 21.9375 59.636719 26.253906 55.054688 26.253906 49.40625 C 26.253906 43.761719 21.9375 39.179688 16.613281 39.179688 C 11.289062 39.179688 6.96875 43.761719 6.96875 49.40625 C 6.96875 55.054688 11.289062 59.636719 16.613281 59.636719 Z M 16.613281 59.636719 " clip-rule="nonzero"/></clipPath><clipPath id="8209cc3b19"><path d="M 156.117188 1.136719 L 166.164062 1.136719 L 166.164062 11.808594 L 156.117188 11.808594 Z M 156.117188 1.136719 " clip-rule="nonzero"/></clipPath><clipPath id="276b62cb9e"><path d="M 161.140625 11.808594 C 163.914062 11.808594 166.164062 9.425781 166.164062 6.484375 C 166.164062 3.542969 163.914062 1.15625 161.140625 1.15625 C 158.367188 1.15625 156.117188 3.542969 156.117188 6.484375 C 156.117188 9.425781 158.367188 11.808594 161.140625 11.808594 Z M 161.140625 11.808594 " clip-rule="nonzero"/></clipPath><clipPath id="e6936b32ae"><path d="M 0.242188 186.078125 L 31.496094 186.078125 L 31.496094 219.296875 L 0.242188 219.296875 Z M 0.242188 186.078125 " clip-rule="nonzero"/></clipPath><clipPath id="032db30ce5"><path d="M 15.863281 219.296875 C 24.496094 219.296875 31.496094 211.875 31.496094 202.71875 C 31.496094 193.558594 24.496094 186.136719 15.863281 186.136719 C 7.230469 186.136719 0.230469 193.558594 0.230469 202.71875 C 0.230469 211.875 7.230469 219.296875 15.863281 219.296875 Z M 15.863281 219.296875 " clip-rule="nonzero"/></clipPath><clipPath id="c310748f36"><path d="M 0.242188 0 L 71 0 L 71 63 L 0.242188 63 Z M 0.242188 0 " clip-rule="nonzero"/></clipPath><clipPath id="c2343d1c65"><path d="M 52.234375 0 L 62.28125 0 L 62.28125 10.652344 L 52.234375 10.652344 Z M 52.234375 0 " clip-rule="nonzero"/></clipPath><clipPath id="ba258faca2"><path d="M 57.257812 10.652344 C 60.03125 10.652344 62.28125 8.269531 62.28125 5.328125 C 62.28125 2.386719 60.03125 0 57.257812 0 C 54.484375 0 52.234375 2.386719 52.234375 5.328125 C 52.234375 8.269531 54.484375 10.652344 57.257812 10.652344 Z M 57.257812 10.652344 " clip-rule="nonzero"/></clipPath></defs><g clip-path="url(#78a46850e0)"><path stroke-linecap="butt" transform="matrix(-0.63861, -0.391051, 0.391051, -0.63861, 306.914034, 318.671542)" fill="none" stroke-linejoin="miter" d="M 0.000791091 1.999188 L 293.259259 2.00046 " stroke="#fff7eb" stroke-width="4" stroke-opacity="1" stroke-miterlimit="4"/></g><g clip-path="url(#f14b213f24)"><g clip-path="url(#8d712f9ae8)"><path fill="#fff7eb" d="M 136.050781 219.296875 L 104.785156 219.296875 L 104.785156 186.078125 L 136.050781 186.078125 Z M 136.050781 219.296875 " fill-opacity="1" fill-rule="nonzero"/></g></g><path stroke-linecap="butt" transform="matrix(0.00365775, -0.748819, 0.748819, 0.00365775, 118.547638, 202.699821)" fill="none" stroke-linejoin="miter" d="M 0.000150773 2.002134 L 204.7235 1.998483 " stroke="#fff7eb" stroke-width="4" stroke-opacity="1" stroke-miterlimit="4"/><g clip-path="url(#3329b56ac1)"><g clip-path="url(#268af7cf03)"><path fill="#fff7eb" d="M 130.433594 59.636719 L 111.148438 59.636719 L 111.148438 39.144531 L 130.433594 39.144531 Z M 130.433594 59.636719 " fill-opacity="1" fill-rule="nonzero"/></g></g><g clip-path="url(#3054fab50e)"><path stroke-linecap="butt" transform="matrix(0.00365775, -0.748819, 0.748819, 0.00365775, 14.367979, 202.691587)" fill="none" stroke-linejoin="miter" d="M -0.000411635 2.002099 L 204.722937 1.998448 " stroke="#fff7eb" stroke-width="4" stroke-opacity="1" stroke-miterlimit="4"/></g><g clip-path="url(#57efeb08a9)"><g clip-path="url(#44fc1260d1)"><path fill="#fff7eb" d="M 26.253906 59.636719 L 6.96875 59.636719 L 6.96875 39.144531 L 26.253906 39.144531 Z M 26.253906 59.636719 " fill-opacity="1" fill-rule="nonzero"/></g></g><path stroke-linecap="butt" transform="matrix(0.529745, -0.529257, 0.529257, 0.529745, 119.716666, 45.752953)" fill="none" stroke-linejoin="miter" d="M -0.00170015 1.998409 L 69.296252 1.999679 " stroke="#fff7eb" stroke-width="4" stroke-opacity="1" stroke-miterlimit="4"/><g clip-path="url(#8209cc3b19)"><g clip-path="url(#276b62cb9e)"><path fill="#fff7eb" d="M 166.164062 11.808594 L 156.117188 11.808594 L 156.117188 1.136719 L 166.164062 1.136719 Z M 166.164062 11.808594 " fill-opacity="1" fill-rule="nonzero"/></g></g><g clip-path="url(#e6936b32ae)"><g clip-path="url(#032db30ce5)"><path fill="#fff7eb" d="M 31.496094 219.296875 L 0.230469 219.296875 L 0.230469 186.078125 L 31.496094 186.078125 Z M 31.496094 219.296875 " fill-opacity="1" fill-rule="nonzero"/></g></g><g clip-path="url(#c310748f36)"><path stroke-linecap="butt" transform="matrix(0.529745, -0.529257, 0.529257, 0.529745, 15.833656, 44.596738)" fill="none" stroke-linejoin="miter" d="M -0.00148088 1.998561 L 69.296471 1.999832 " stroke="#fff7eb" stroke-width="4" stroke-opacity="1" stroke-miterlimit="4"/></g><g clip-path="url(#c2343d1c65)"><g clip-path="url(#ba258faca2)"><path fill="#fff7eb" d="M 62.28125 10.652344 L 52.234375 10.652344 L 52.234375 -0.0195312 L 62.28125 -0.0195312 Z M 62.28125 10.652344 " fill-opacity="1" fill-rule="nonzero"/></g></g><path stroke-linecap="butt" transform="matrix(-0.748828, 0, 0, -0.748828, 117.797063, 204.214778)" fill="none" stroke-linejoin="miter" d="M 0.000251487 1.997826 L 115.248041 1.997826 " stroke="#fff7eb" stroke-width="4" stroke-opacity="1" stroke-miterlimit="4"/></svg>